<mxfile host="app.diagrams.net" modified="2023-06-23T15:18:28.154Z" agent="Mozilla/5.0 (Windows NT 10.0; Win64; x64) AppleWebKit/537.36 (KHTML, like Gecko) Chrome/114.0.0.0 Safari/537.36 Edg/114.0.1823.51" etag="mOpcW8TNsPar0KcBTINe" version="21.5.0" type="github">
  <diagram id="C5RBs43oDa-KdzZeNtuy" name="Page-1">
    <mxGraphModel dx="1629" dy="1494" grid="0" gridSize="10" guides="1" tooltips="1" connect="1" arrows="1" fold="1" page="0" pageScale="1" pageWidth="827" pageHeight="1169" math="0" shadow="0">
      <root>
        <mxCell id="WIyWlLk6GJQsqaUBKTNV-0" />
        <mxCell id="WIyWlLk6GJQsqaUBKTNV-1" parent="WIyWlLk6GJQsqaUBKTNV-0" />
        <mxCell id="-IqSXePFjRSmq5QO-dqF-0" value="Leader选举的实现" style="text;html=1;strokeColor=none;fillColor=none;align=center;verticalAlign=middle;whiteSpace=wrap;rounded=0;fontStyle=1;fontFamily=Times New Roman;fontSize=20;labelBorderColor=none;" vertex="1" parent="WIyWlLk6GJQsqaUBKTNV-1">
          <mxGeometry x="255" y="-126" width="230" height="70" as="geometry" />
        </mxCell>
        <mxCell id="-IqSXePFjRSmq5QO-dqF-3" style="edgeStyle=orthogonalEdgeStyle;rounded=0;orthogonalLoop=1;jettySize=auto;html=1;exitX=0.5;exitY=1;exitDx=0;exitDy=0;entryX=0.5;entryY=0;entryDx=0;entryDy=0;" edge="1" parent="WIyWlLk6GJQsqaUBKTNV-1" source="-IqSXePFjRSmq5QO-dqF-1" target="-IqSXePFjRSmq5QO-dqF-2">
          <mxGeometry relative="1" as="geometry" />
        </mxCell>
        <mxCell id="-IqSXePFjRSmq5QO-dqF-1" value="&lt;font face=&quot;Times New Roman&quot; style=&quot;font-size: 15px;&quot;&gt;&lt;b&gt;自己是否是Leader？&lt;/b&gt;&lt;/font&gt;" style="rounded=1;whiteSpace=wrap;html=1;" vertex="1" parent="WIyWlLk6GJQsqaUBKTNV-1">
          <mxGeometry x="272" y="-40" width="202" height="60" as="geometry" />
        </mxCell>
        <mxCell id="-IqSXePFjRSmq5QO-dqF-6" style="edgeStyle=orthogonalEdgeStyle;rounded=0;orthogonalLoop=1;jettySize=auto;html=1;exitX=0.5;exitY=1;exitDx=0;exitDy=0;entryX=0.5;entryY=0;entryDx=0;entryDy=0;" edge="1" parent="WIyWlLk6GJQsqaUBKTNV-1" source="-IqSXePFjRSmq5QO-dqF-2">
          <mxGeometry relative="1" as="geometry">
            <mxPoint x="373" y="248" as="targetPoint" />
          </mxGeometry>
        </mxCell>
        <mxCell id="-IqSXePFjRSmq5QO-dqF-2" value="&lt;font face=&quot;Times New Roman&quot; style=&quot;font-size: 15px;&quot;&gt;&lt;b&gt;是否心跳已经超时？&lt;br&gt;（太久没收到Leader的Beats)&lt;/b&gt;&lt;br&gt;&lt;/font&gt;" style="rounded=1;whiteSpace=wrap;html=1;" vertex="1" parent="WIyWlLk6GJQsqaUBKTNV-1">
          <mxGeometry x="272" y="112" width="202" height="60" as="geometry" />
        </mxCell>
        <mxCell id="-IqSXePFjRSmq5QO-dqF-4" value="&lt;font face=&quot;Times New Roman&quot;&gt;NO&lt;/font&gt;" style="text;html=1;strokeColor=none;fillColor=none;align=center;verticalAlign=middle;whiteSpace=wrap;rounded=0;fontSize=17;" vertex="1" parent="WIyWlLk6GJQsqaUBKTNV-1">
          <mxGeometry x="369" y="51" width="60" height="30" as="geometry" />
        </mxCell>
        <mxCell id="-IqSXePFjRSmq5QO-dqF-7" value="&lt;font face=&quot;Times New Roman&quot;&gt;Yes&lt;/font&gt;" style="text;html=1;strokeColor=none;fillColor=none;align=center;verticalAlign=middle;whiteSpace=wrap;rounded=0;fontSize=17;" vertex="1" parent="WIyWlLk6GJQsqaUBKTNV-1">
          <mxGeometry x="369" y="198" width="60" height="30" as="geometry" />
        </mxCell>
        <mxCell id="-IqSXePFjRSmq5QO-dqF-8" value="&lt;font face=&quot;Times New Roman&quot; style=&quot;font-size: 15px;&quot;&gt;注意，节点的超时时间必须随机分布，避免不必要的锁争抢，这是Raft的关键实现&lt;/font&gt;" style="text;html=1;strokeColor=none;fillColor=none;align=center;verticalAlign=middle;whiteSpace=wrap;rounded=0;fontSize=15;" vertex="1" parent="WIyWlLk6GJQsqaUBKTNV-1">
          <mxGeometry x="157" y="195" width="216" height="30" as="geometry" />
        </mxCell>
        <mxCell id="-IqSXePFjRSmq5QO-dqF-11" style="edgeStyle=orthogonalEdgeStyle;rounded=0;orthogonalLoop=1;jettySize=auto;html=1;exitX=0.5;exitY=1;exitDx=0;exitDy=0;entryX=0.5;entryY=0;entryDx=0;entryDy=0;" edge="1" parent="WIyWlLk6GJQsqaUBKTNV-1" source="-IqSXePFjRSmq5QO-dqF-9" target="-IqSXePFjRSmq5QO-dqF-10">
          <mxGeometry relative="1" as="geometry" />
        </mxCell>
        <mxCell id="-IqSXePFjRSmq5QO-dqF-9" value="&lt;font face=&quot;Times New Roman&quot; style=&quot;font-size: 15px;&quot;&gt;&lt;b&gt;节点优先选举自己，把自己变为Candidate&lt;/b&gt;&lt;br&gt;&lt;/font&gt;" style="rounded=1;whiteSpace=wrap;html=1;" vertex="1" parent="WIyWlLk6GJQsqaUBKTNV-1">
          <mxGeometry x="272" y="249" width="202" height="60" as="geometry" />
        </mxCell>
        <mxCell id="-IqSXePFjRSmq5QO-dqF-13" style="edgeStyle=orthogonalEdgeStyle;rounded=0;orthogonalLoop=1;jettySize=auto;html=1;exitX=1;exitY=0.5;exitDx=0;exitDy=0;entryX=0;entryY=0.5;entryDx=0;entryDy=0;" edge="1" parent="WIyWlLk6GJQsqaUBKTNV-1" source="-IqSXePFjRSmq5QO-dqF-10" target="-IqSXePFjRSmq5QO-dqF-12">
          <mxGeometry relative="1" as="geometry" />
        </mxCell>
        <mxCell id="-IqSXePFjRSmq5QO-dqF-10" value="&lt;font face=&quot;Times New Roman&quot; style=&quot;font-size: 15px;&quot;&gt;&lt;b&gt;把自身Term+1也就是任期+1&lt;/b&gt;&lt;br&gt;&lt;/font&gt;" style="rounded=1;whiteSpace=wrap;html=1;" vertex="1" parent="WIyWlLk6GJQsqaUBKTNV-1">
          <mxGeometry x="272" y="391" width="202" height="60" as="geometry" />
        </mxCell>
        <mxCell id="-IqSXePFjRSmq5QO-dqF-16" style="edgeStyle=orthogonalEdgeStyle;rounded=0;orthogonalLoop=1;jettySize=auto;html=1;exitX=0.5;exitY=0;exitDx=0;exitDy=0;entryX=0.5;entryY=1;entryDx=0;entryDy=0;" edge="1" parent="WIyWlLk6GJQsqaUBKTNV-1" source="-IqSXePFjRSmq5QO-dqF-12" target="-IqSXePFjRSmq5QO-dqF-15">
          <mxGeometry relative="1" as="geometry" />
        </mxCell>
        <mxCell id="-IqSXePFjRSmq5QO-dqF-12" value="&lt;font face=&quot;Times New Roman&quot; style=&quot;font-size: 15px;&quot;&gt;&lt;b&gt;向其他节点并行发送投票请求&lt;br&gt;&lt;/b&gt;（内容：Term、自身的LastIndex、日志的LastIndex)&lt;br&gt;&lt;/font&gt;" style="rounded=1;whiteSpace=wrap;html=1;" vertex="1" parent="WIyWlLk6GJQsqaUBKTNV-1">
          <mxGeometry x="585" y="391" width="356" height="60" as="geometry" />
        </mxCell>
        <mxCell id="-IqSXePFjRSmq5QO-dqF-14" value="&lt;font face=&quot;Times New Roman&quot;&gt;通过RPC&lt;/font&gt;" style="text;html=1;strokeColor=none;fillColor=none;align=center;verticalAlign=middle;whiteSpace=wrap;rounded=0;fontSize=15;" vertex="1" parent="WIyWlLk6GJQsqaUBKTNV-1">
          <mxGeometry x="425" y="391" width="216" height="30" as="geometry" />
        </mxCell>
        <mxCell id="-IqSXePFjRSmq5QO-dqF-18" style="edgeStyle=orthogonalEdgeStyle;rounded=0;orthogonalLoop=1;jettySize=auto;html=1;exitX=0.5;exitY=0;exitDx=0;exitDy=0;entryX=0.5;entryY=1;entryDx=0;entryDy=0;" edge="1" parent="WIyWlLk6GJQsqaUBKTNV-1" source="-IqSXePFjRSmq5QO-dqF-15" target="-IqSXePFjRSmq5QO-dqF-17">
          <mxGeometry relative="1" as="geometry" />
        </mxCell>
        <mxCell id="-IqSXePFjRSmq5QO-dqF-15" value="&lt;font face=&quot;Times New Roman&quot; style=&quot;font-size: 15px;&quot;&gt;&lt;b&gt;有超时时间地等待投票结果&lt;br&gt;&lt;/b&gt;如果超时则不等待，也会拒绝返回的结果&lt;br&gt;&lt;/font&gt;" style="rounded=1;whiteSpace=wrap;html=1;" vertex="1" parent="WIyWlLk6GJQsqaUBKTNV-1">
          <mxGeometry x="585" y="247" width="356" height="60" as="geometry" />
        </mxCell>
        <mxCell id="-IqSXePFjRSmq5QO-dqF-21" style="edgeStyle=orthogonalEdgeStyle;rounded=0;orthogonalLoop=1;jettySize=auto;html=1;exitX=1;exitY=0.5;exitDx=0;exitDy=0;entryX=0;entryY=0.5;entryDx=0;entryDy=0;" edge="1" parent="WIyWlLk6GJQsqaUBKTNV-1" source="-IqSXePFjRSmq5QO-dqF-17" target="-IqSXePFjRSmq5QO-dqF-20">
          <mxGeometry relative="1" as="geometry" />
        </mxCell>
        <mxCell id="-IqSXePFjRSmq5QO-dqF-23" style="edgeStyle=orthogonalEdgeStyle;rounded=0;orthogonalLoop=1;jettySize=auto;html=1;exitX=0.5;exitY=0;exitDx=0;exitDy=0;entryX=1;entryY=0.5;entryDx=0;entryDy=0;" edge="1" parent="WIyWlLk6GJQsqaUBKTNV-1" source="-IqSXePFjRSmq5QO-dqF-17" target="-IqSXePFjRSmq5QO-dqF-1">
          <mxGeometry relative="1" as="geometry" />
        </mxCell>
        <mxCell id="-IqSXePFjRSmq5QO-dqF-17" value="&lt;b style=&quot;border-color: var(--border-color); font-family: &amp;quot;Times New Roman&amp;quot;; font-size: 15px;&quot;&gt;获得超过半数的支持票？&lt;/b&gt;&lt;font face=&quot;Times New Roman&quot; style=&quot;font-size: 15px;&quot;&gt;&lt;br&gt;&lt;/font&gt;" style="rounded=1;whiteSpace=wrap;html=1;" vertex="1" parent="WIyWlLk6GJQsqaUBKTNV-1">
          <mxGeometry x="585" y="112" width="356" height="60" as="geometry" />
        </mxCell>
        <mxCell id="-IqSXePFjRSmq5QO-dqF-20" value="&lt;font face=&quot;Times New Roman&quot; style=&quot;font-size: 15px;&quot;&gt;&lt;b&gt;当选为新Leader&lt;br&gt;&lt;/b&gt;并发送心跳，阻止其他的选举&lt;br&gt;&lt;/font&gt;" style="rounded=1;whiteSpace=wrap;html=1;" vertex="1" parent="WIyWlLk6GJQsqaUBKTNV-1">
          <mxGeometry x="998" y="112" width="356" height="60" as="geometry" />
        </mxCell>
        <mxCell id="-IqSXePFjRSmq5QO-dqF-22" value="&lt;font face=&quot;Times New Roman&quot;&gt;Yes&lt;/font&gt;" style="text;html=1;strokeColor=none;fillColor=none;align=center;verticalAlign=middle;whiteSpace=wrap;rounded=0;fontSize=17;" vertex="1" parent="WIyWlLk6GJQsqaUBKTNV-1">
          <mxGeometry x="941" y="110" width="60" height="30" as="geometry" />
        </mxCell>
        <mxCell id="-IqSXePFjRSmq5QO-dqF-24" value="&lt;font face=&quot;Times New Roman&quot;&gt;NO&lt;/font&gt;" style="text;html=1;strokeColor=none;fillColor=none;align=center;verticalAlign=middle;whiteSpace=wrap;rounded=0;fontSize=17;" vertex="1" parent="WIyWlLk6GJQsqaUBKTNV-1">
          <mxGeometry x="766" y="51" width="60" height="30" as="geometry" />
        </mxCell>
      </root>
    </mxGraphModel>
  </diagram>
</mxfile>
